<?xml version="1.0" encoding="UTF-8"?>
<!DOCTYPE svg PUBLIC "-//W3C//DTD SVG 1.1//EN" "http://www.w3.org/Graphics/SVG/1.1/DTD/svg11.dtd">
<svg xmlns="http://www.w3.org/2000/svg" version="1.1" width="87px" height="77px" style="shape-rendering:geometricPrecision; text-rendering:geometricPrecision; image-rendering:optimizeQuality; fill-rule:evenodd; clip-rule:evenodd" xmlns:xlink="http://www.w3.org/1999/xlink">
<g><path style="opacity:1" fill="#edf1f6" d="M -0.5,-0.5 C 28.5,-0.5 57.5,-0.5 86.5,-0.5C 86.5,18.5 86.5,37.5 86.5,56.5C 85.0384,57.4577 83.7051,58.6244 82.5,60C 81.2068,60.49 79.8734,60.6567 78.5,60.5C 78.5,55.5 78.5,50.5 78.5,45.5C 76.8561,45.2865 75.3561,45.6198 74,46.5C 73.4954,48.5183 72.9954,50.5183 72.5,52.5C 69.4193,55.1925 65.7527,56.1925 61.5,55.5C 61.8016,52.9407 61.4682,50.6074 60.5,48.5C 58.0448,44.2104 54.7115,40.7104 50.5,38C 55.6306,29.7215 53.6306,23.5548 44.5,19.5C 41.7111,16.1355 42.3778,13.3022 46.5,11C 55.3831,5.62848 62.8831,7.12848 69,15.5C 69.3333,17.1667 69.6667,18.8333 70,20.5C 71.352,12.8306 68.1853,7.9973 60.5,6C 51.4063,5.21351 44.4063,8.71351 39.5,16.5C 32.7431,16.1226 26.0764,16.6226 19.5,18C 6.94423,23.2747 3.44423,32.108 9,44.5C 14.6667,51.1667 20.3333,51.1667 26,44.5C 28.1218,39.3476 27.7885,34.3476 25,29.5C 25.9971,34.5435 25.6638,39.5435 24,44.5C 16.149,49.7431 11.149,47.7431 9,38.5C 8.14685,28.3918 12.6468,21.8918 22.5,19C 27.1548,18.5008 31.8215,18.3342 36.5,18.5C 37.0967,18.7352 37.4301,19.2352 37.5,20C 33.8321,29.1707 31.3321,38.6707 30,48.5C 29.0808,52.5181 27.4141,56.1847 25,59.5C 20.6114,61.9488 16.1114,62.1155 11.5,60C 10.3777,58.3866 10.8777,57.2199 13,56.5C 12.6066,52.5872 10.4399,49.9206 6.5,48.5C 4.26056,48.5743 3.26056,49.741 3.5,52C 5.95645,59.3267 11.1231,63.16 19,63.5C 28.8358,62.6658 34.5024,57.3325 36,47.5C 37.3406,38.7569 38.8406,30.0902 40.5,21.5C 41.1667,21.5 41.8333,21.5 42.5,21.5C 48.5068,25.4833 50.0068,30.8166 47,37.5C 44.8526,38.1125 42.686,38.7792 40.5,39.5C 43.9108,39.6305 47.2441,40.1305 50.5,41C 52.8196,43.4778 54.4863,46.3111 55.5,49.5C 55.5,51.5 55.5,53.5 55.5,55.5C 50.4012,55.1746 45.4012,55.6746 40.5,57C 38.7888,58.1332 38.2888,59.6332 39,61.5C 47.1286,64.9968 54.2952,63.4968 60.5,57C 64.795,57.016 68.795,56.1826 72.5,54.5C 74.2245,64.0221 78.8912,65.6887 86.5,59.5C 86.5,65.1667 86.5,70.8333 86.5,76.5C 57.5,76.5 28.5,76.5 -0.5,76.5C -0.5,50.8333 -0.5,25.1667 -0.5,-0.5 Z"/></g>
<g><path style="opacity:1" fill="#9e744c" d="M 44.5,19.5 C 43.1667,19.5 42.5,20.1667 42.5,21.5C 41.8333,21.5 41.1667,21.5 40.5,21.5C 40.6775,20.3052 41.0109,19.1385 41.5,18C 41.1639,16.9701 40.4972,16.4701 39.5,16.5C 44.4063,8.71351 51.4063,5.21351 60.5,6C 68.1853,7.9973 71.352,12.8306 70,20.5C 69.6667,18.8333 69.3333,17.1667 69,15.5C 62.8831,7.12848 55.3831,5.62848 46.5,11C 42.3778,13.3022 41.7111,16.1355 44.5,19.5 Z"/></g>
<g><path style="opacity:1" fill="#9e754f" d="M 39.5,16.5 C 38.5,17.1667 37.5,17.8333 36.5,18.5C 31.8215,18.3342 27.1548,18.5008 22.5,19C 12.6468,21.8918 8.14685,28.3918 9,38.5C 11.149,47.7431 16.149,49.7431 24,44.5C 25.6638,39.5435 25.9971,34.5435 25,29.5C 27.7885,34.3476 28.1218,39.3476 26,44.5C 20.3333,51.1667 14.6667,51.1667 9,44.5C 3.44423,32.108 6.94423,23.2747 19.5,18C 26.0764,16.6226 32.7431,16.1226 39.5,16.5 Z"/></g>
<g><path style="opacity:1" fill="#5f2022" d="M 77.5,25.5 C 78.8333,25.5 80.1667,25.5 81.5,25.5C 81.9899,27.9484 81.1566,29.615 79,30.5C 76.3894,29.5001 75.8894,27.8334 77.5,25.5 Z"/></g>
<g><path style="opacity:1" fill="#a3652d" d="M 39.5,16.5 C 40.4972,16.4701 41.1639,16.9701 41.5,18C 41.0109,19.1385 40.6775,20.3052 40.5,21.5C 38.8406,30.0902 37.3406,38.7569 36,47.5C 34.5024,57.3325 28.8358,62.6658 19,63.5C 11.1231,63.16 5.95645,59.3267 3.5,52C 3.26056,49.741 4.26056,48.5743 6.5,48.5C 10.4399,49.9206 12.6066,52.5872 13,56.5C 10.8777,57.2199 10.3777,58.3866 11.5,60C 16.1114,62.1155 20.6114,61.9488 25,59.5C 27.4141,56.1847 29.0808,52.5181 30,48.5C 31.3321,38.6707 33.8321,29.1707 37.5,20C 37.4301,19.2352 37.0967,18.7352 36.5,18.5C 37.5,17.8333 38.5,17.1667 39.5,16.5 Z"/></g>
<g><path style="opacity:1" fill="#a06632" d="M 44.5,19.5 C 53.6306,23.5548 55.6306,29.7215 50.5,38C 54.7115,40.7104 58.0448,44.2104 60.5,48.5C 60.9683,52.0339 59.9683,55.0339 57.5,57.5C 56.8324,54.6944 56.1657,52.0277 55.5,49.5C 54.4863,46.3111 52.8196,43.4778 50.5,41C 47.2441,40.1305 43.9108,39.6305 40.5,39.5C 42.686,38.7792 44.8526,38.1125 47,37.5C 50.0068,30.8166 48.5068,25.4833 42.5,21.5C 42.5,20.1667 43.1667,19.5 44.5,19.5 Z"/></g>
<g><path style="opacity:1" fill="#9d7046" d="M 60.5,48.5 C 61.4682,50.6074 61.8016,52.9407 61.5,55.5C 65.7527,56.1925 69.4193,55.1925 72.5,52.5C 72.5,53.1667 72.5,53.8333 72.5,54.5C 68.795,56.1826 64.795,57.016 60.5,57C 54.2952,63.4968 47.1286,64.9968 39,61.5C 38.2888,59.6332 38.7888,58.1332 40.5,57C 45.4012,55.6746 50.4012,55.1746 55.5,55.5C 55.5,53.5 55.5,51.5 55.5,49.5C 56.1657,52.0277 56.8324,54.6944 57.5,57.5C 59.9683,55.0339 60.9683,52.0339 60.5,48.5 Z"/></g>
<g><path style="opacity:1" fill="#edeef1" d="M 45.5,56.5 C 48.8499,56.335 52.1832,56.5017 55.5,57C 54.8333,59 53.5,60.3333 51.5,61C 48.5184,61.498 45.5184,61.6646 42.5,61.5C 42.31,59.0411 43.31,57.3745 45.5,56.5 Z"/></g>
<g><path style="opacity:1" fill="#a36936" d="M 86.5,56.5 C 86.5,57.5 86.5,58.5 86.5,59.5C 78.8912,65.6887 74.2245,64.0221 72.5,54.5C 72.5,53.8333 72.5,53.1667 72.5,52.5C 72.9954,50.5183 73.4954,48.5183 74,46.5C 75.3561,45.6198 76.8561,45.2865 78.5,45.5C 78.5,50.5 78.5,55.5 78.5,60.5C 79.8734,60.6567 81.2068,60.49 82.5,60C 83.7051,58.6244 85.0384,57.4577 86.5,56.5 Z"/></g>
</svg>
